<?xml version="1.0" encoding="UTF-8" standalone="no"?>
<svg
   xmlns:dc="http://purl.org/dc/elements/1.1/"
   xmlns:cc="http://creativecommons.org/ns#"
   xmlns:rdf="http://www.w3.org/1999/02/22-rdf-syntax-ns#"
   xmlns:svg="http://www.w3.org/2000/svg"
   xmlns="http://www.w3.org/2000/svg"
   xmlns:xlink="http://www.w3.org/1999/xlink"
   xmlns:sodipodi="http://sodipodi.sourceforge.net/DTD/sodipodi-0.dtd"
   xmlns:inkscape="http://www.inkscape.org/namespaces/inkscape"
   sodipodi:docname="icon-set.svg"
   inkscape:version="1.0rc1 (09960d6, 2020-04-09)"
   id="svg8"
   version="1.1"
   viewBox="0 0 4.2333333 4.2333333"
   height="16"
   width="16">
  <defs
     id="defs2">
    <linearGradient
       inkscape:collect="always"
       id="linearGradient2208">
      <stop
         style="stop-color:#000000;stop-opacity:0.16"
         offset="0"
         id="stop2204" />
      <stop
         style="stop-color:#000000;stop-opacity:0"
         offset="1"
         id="stop2206" />
    </linearGradient>
    <linearGradient
       inkscape:collect="always"
       xlink:href="#linearGradient2208"
       id="linearGradient2210"
       x1="441.06573"
       y1="938.71985"
       x2="583.50391"
       y2="1061.5291"
       gradientUnits="userSpaceOnUse" />
    <linearGradient
       inkscape:collect="always"
       xlink:href="#linearGradient2208"
       id="linearGradient2433"
       gradientUnits="userSpaceOnUse"
       x1="441.06573"
       y1="938.71985"
       x2="583.50391"
       y2="1061.5291" />
    <linearGradient
       inkscape:collect="always"
       xlink:href="#linearGradient2208"
       id="linearGradient2435"
       gradientUnits="userSpaceOnUse"
       x1="441.06573"
       y1="938.71985"
       x2="583.50391"
       y2="1061.5291" />
    <linearGradient
       inkscape:collect="always"
       xlink:href="#linearGradient2208"
       id="linearGradient2463"
       gradientUnits="userSpaceOnUse"
       x1="441.06573"
       y1="938.71985"
       x2="583.50391"
       y2="1061.5291"
       gradientTransform="matrix(0.26458333,0,0,0.26458333,84.62467,0)" />
    <linearGradient
       inkscape:collect="always"
       xlink:href="#linearGradient2208"
       id="linearGradient2553"
       gradientUnits="userSpaceOnUse"
       x1="441.06573"
       y1="938.71985"
       x2="583.50391"
       y2="1061.5291" />
  </defs>
  <sodipodi:namedview
     inkscape:window-maximized="0"
     inkscape:window-y="23"
     inkscape:window-x="0"
     inkscape:window-height="755"
     inkscape:window-width="1280"
     inkscape:guide-bbox="true"
     showguides="true"
     showgrid="false"
     inkscape:document-rotation="0"
     inkscape:current-layer="layer1"
     inkscape:document-units="px"
     inkscape:cy="517.88793"
     inkscape:cx="703.9986"
     inkscape:zoom="0.40268529"
     inkscape:pageshadow="2"
     inkscape:pageopacity="0.0"
     borderopacity="1.0"
     bordercolor="#666666"
     pagecolor="#ffffff"
     id="base"
     units="px"
     inkscape:snap-nodes="false"
     inkscape:snap-others="false" />
  <metadata
     id="metadata5">
    <rdf:RDF>
      <cc:Work
         rdf:about="">
        <dc:format>image/svg+xml</dc:format>
        <dc:type
           rdf:resource="http://purl.org/dc/dcmitype/StillImage" />
        <dc:title />
      </cc:Work>
    </rdf:RDF>
  </metadata>
  <g
     id="layer1"
     inkscape:groupmode="layer"
     inkscape:label="Layer 1">
    <g
       id="favicon-16x16">
      <circle
         style="fill:#d71f3b;fill-opacity:1;stroke:none;stroke-width:2.15743;stroke-linecap:butt;stroke-linejoin:bevel;stroke-miterlimit:4;stroke-dasharray:none"
         id="path865"
         cx="2.9934187"
         cy="-6.1717486e-07"
         r="2.1166666"
         transform="rotate(45)" />
      <path
         id="rect874"
         style="fill:#000000;fill-opacity:0.16;stroke:none;stroke-width:0.0169273;stroke-linecap:butt;stroke-linejoin:bevel;stroke-miterlimit:4;stroke-dasharray:none"
         d="M 3.2033042,1.1071533 1.8022332,1.2591638 1.3386158,3.5727224 2.0053361,4.2303825 A 2.1166668,2.1166668 0 0 0 3.6134074,3.6133847 2.1166668,2.1166668 0 0 0 4.2332498,2.1252999 Z"
         inkscape:connector-curvature="0" />
      <g
         aria-label="P"
         transform="matrix(0.20314255,0,0,0.1677978,-12.635849,-9.1794466)"
         id="text869"
         style="font-style:normal;font-weight:normal;font-size:22.3352px;line-height:1.25;font-family:sans-serif;fill:#000000;fill-opacity:1;stroke:none;stroke-width:0.55838">
        <path
           d="m 79.315233,65.43787 c 0,3.531016 -2.135572,5.454747 -4.809666,5.553218 h -2.611793 v 5.006158 H 68.791211 V 59.758422 h 5.644348 c 2.764504,-0.07429 4.879674,2.178965 4.879674,5.679448 z m -5.303242,-2.405075 h -2.118217 v 4.956474 h 2.293368 c 1.790889,0 2.272815,-1.452878 2.251019,-2.53057 -0.0249,-1.23097 -0.671317,-2.425904 -2.42617,-2.425904 z"
           style="fill:#ffffff;stroke:none;stroke-width:0.0529167;stroke-miterlimit:4;stroke-dasharray:none"
           id="path871"
           inkscape:connector-curvature="0"
           sodipodi:nodetypes="ccccccccccccsc" />
      </g>
    </g>
    <g
       transform="matrix(2.4462298,0,0,2.4462298,-166.87563,-98.657235)"
       id="android-chrome-192x192">
      <circle
         transform="rotate(45)"
         r="10.383326"
         cy="-13.423172"
         cx="97.735153"
         id="circle1051"
         style="fill:#d71f3b;fill-opacity:1;stroke:none;stroke-width:10.5833;stroke-linecap:butt;stroke-linejoin:bevel;stroke-miterlimit:4;stroke-dasharray:none" />
      <path
         inkscape:connector-curvature="0"
         transform="scale(0.26458333)"
         d="m 317.2207,206.60938 -25.97656,2.81835 -8.5957,42.89454 12.36133,12.19335 a 39.244067,39.244067 0 0 0 29.81445,-11.43945 39.244067,39.244067 0 0 0 11.49219,-27.58984 z"
         style="fill:#000000;fill-opacity:0.16;stroke:none;stroke-width:0.313841;stroke-linecap:butt;stroke-linejoin:bevel;stroke-miterlimit:4;stroke-dasharray:none"
         id="path1053" />
      <g
         style="font-style:normal;font-weight:normal;font-size:22.3352px;line-height:1.25;font-family:sans-serif;fill:#000000;fill-opacity:1;stroke:none;stroke-width:0.55838"
         id="g1057"
         transform="matrix(0.99651742,0,0,0.82313349,6.2322197,4.2044)"
         aria-label="P">
        <path
           sodipodi:nodetypes="ccccccccccccsc"
           inkscape:connector-curvature="0"
           id="path1055"
           style="fill:#ffffff;stroke:none;stroke-width:0.0529167;stroke-miterlimit:4;stroke-dasharray:none"
           d="m 79.315233,65.43787 c 0,3.531016 -2.135572,5.454747 -4.809666,5.553218 h -2.611793 v 5.006158 H 68.791211 V 59.758422 h 5.644348 c 2.764504,-0.07429 4.879674,2.178965 4.879674,5.679448 z m -5.303242,-2.405075 h -2.118217 v 4.956474 h 2.293368 c 1.790889,0 2.272815,-1.452878 2.251019,-2.53057 -0.0249,-1.23097 -0.671317,-2.425904 -2.42617,-2.425904 z" />
      </g>
    </g>
    <g
       id="android-chrome-512x512"
       transform="matrix(6.5232794,0,0,6.5232794,-394.20155,-299.38664)">
      <circle
         style="fill:#d71f3b;fill-opacity:1;stroke:none;stroke-width:10.5833;stroke-linecap:butt;stroke-linejoin:bevel;stroke-miterlimit:4;stroke-dasharray:none"
         id="circle1104"
         cx="97.735153"
         cy="-13.423172"
         r="10.383326"
         transform="rotate(45)" />
      <path
         id="path1106"
         style="fill:#000000;fill-opacity:0.16;stroke:none;stroke-width:0.313841;stroke-linecap:butt;stroke-linejoin:bevel;stroke-miterlimit:4;stroke-dasharray:none"
         d="m 317.2207,206.60938 -25.97656,2.81835 -8.5957,42.89454 12.36133,12.19335 a 39.244067,39.244067 0 0 0 29.81445,-11.43945 39.244067,39.244067 0 0 0 11.49219,-27.58984 z"
         transform="scale(0.26458333)"
         inkscape:connector-curvature="0" />
      <g
         aria-label="P"
         transform="matrix(0.99651742,0,0,0.82313349,6.2322197,4.2044)"
         id="g1110"
         style="font-style:normal;font-weight:normal;font-size:22.3352px;line-height:1.25;font-family:sans-serif;fill:#000000;fill-opacity:1;stroke:none;stroke-width:0.55838">
        <path
           d="m 79.315233,65.43787 c 0,3.531016 -2.135572,5.454747 -4.809666,5.553218 h -2.611793 v 5.006158 H 68.791211 V 59.758422 h 5.644348 c 2.764504,-0.07429 4.879674,2.178965 4.879674,5.679448 z m -5.303242,-2.405075 h -2.118217 v 4.956474 h 2.293368 c 1.790889,0 2.272815,-1.452878 2.251019,-2.53057 -0.0249,-1.23097 -0.671317,-2.425904 -2.42617,-2.425904 z"
           style="fill:#ffffff;stroke:none;stroke-width:0.0529167;stroke-miterlimit:4;stroke-dasharray:none"
           id="path1108"
           inkscape:connector-curvature="0"
           sodipodi:nodetypes="ccccccccccccsc" />
      </g>
    </g>
    <g
       id="android-chrome-maskable-192x192"
       transform="matrix(2.4462298,0,0,2.4462298,19.390156,-98.657235)">
      <circle
         style="fill:#d71f3b;fill-opacity:1;stroke:none;stroke-width:10.5833;stroke-linecap:butt;stroke-linejoin:bevel;stroke-miterlimit:4;stroke-dasharray:none"
         id="circle1124"
         cx="97.735153"
         cy="-13.423172"
         r="10.383326"
         transform="rotate(45)" />
      <path
         id="path1126"
         style="fill:#000000;fill-opacity:0.16;stroke:none;stroke-width:0.313841;stroke-linecap:butt;stroke-linejoin:bevel;stroke-miterlimit:4;stroke-dasharray:none"
         d="m 317.2207,206.60938 -25.97656,2.81835 -8.5957,42.89454 12.36133,12.19335 a 39.244067,39.244067 0 0 0 29.81445,-11.43945 39.244067,39.244067 0 0 0 11.49219,-27.58984 z"
         transform="scale(0.26458333)"
         inkscape:connector-curvature="0" />
      <g
         aria-label="P"
         transform="matrix(0.99651742,0,0,0.82313349,6.2322197,4.2044)"
         id="g1130"
         style="font-style:normal;font-weight:normal;font-size:22.3352px;line-height:1.25;font-family:sans-serif;fill:#000000;fill-opacity:1;stroke:none;stroke-width:0.55838">
        <path
           d="m 79.315233,65.43787 c 0,3.531016 -2.135572,5.454747 -4.809666,5.553218 h -2.611793 v 5.006158 H 68.791211 V 59.758422 h 5.644348 c 2.764504,-0.07429 4.879674,2.178965 4.879674,5.679448 z m -5.303242,-2.405075 h -2.118217 v 4.956474 h 2.293368 c 1.790889,0 2.272815,-1.452878 2.251019,-2.53057 -0.0249,-1.23097 -0.671317,-2.425904 -2.42617,-2.425904 z"
           style="fill:#ffffff;stroke:none;stroke-width:0.0529167;stroke-miterlimit:4;stroke-dasharray:none"
           id="path1128"
           inkscape:connector-curvature="0"
           sodipodi:nodetypes="ccccccccccccsc" />
      </g>
    </g>
    <g
       transform="matrix(6.5232794,0,0,6.5232794,-207.93576,-299.38664)"
       id="android-chrome-maskable-512x512">
      <circle
         transform="rotate(45)"
         r="10.383326"
         cy="-13.423172"
         cx="97.735153"
         id="circle1134"
         style="fill:#d71f3b;fill-opacity:1;stroke:none;stroke-width:10.5833;stroke-linecap:butt;stroke-linejoin:bevel;stroke-miterlimit:4;stroke-dasharray:none" />
      <path
         inkscape:connector-curvature="0"
         transform="scale(0.26458333)"
         d="m 317.2207,206.60938 -25.97656,2.81835 -8.5957,42.89454 12.36133,12.19335 a 39.244067,39.244067 0 0 0 29.81445,-11.43945 39.244067,39.244067 0 0 0 11.49219,-27.58984 z"
         style="fill:#000000;fill-opacity:0.16;stroke:none;stroke-width:0.313841;stroke-linecap:butt;stroke-linejoin:bevel;stroke-miterlimit:4;stroke-dasharray:none"
         id="path1136" />
      <g
         style="font-style:normal;font-weight:normal;font-size:22.3352px;line-height:1.25;font-family:sans-serif;fill:#000000;fill-opacity:1;stroke:none;stroke-width:0.55838"
         id="g1140"
         transform="matrix(0.99651742,0,0,0.82313349,6.2322197,4.2044)"
         aria-label="P">
        <path
           sodipodi:nodetypes="ccccccccccccsc"
           inkscape:connector-curvature="0"
           id="path1138"
           style="fill:#ffffff;stroke:none;stroke-width:0.0529167;stroke-miterlimit:4;stroke-dasharray:none"
           d="m 79.315233,65.43787 c 0,3.531016 -2.135572,5.454747 -4.809666,5.553218 h -2.611793 v 5.006158 H 68.791211 V 59.758422 h 5.644348 c 2.764504,-0.07429 4.879674,2.178965 4.879674,5.679448 z m -5.303242,-2.405075 h -2.118217 v 4.956474 h 2.293368 c 1.790889,0 2.272815,-1.452878 2.251019,-2.53057 -0.0249,-1.23097 -0.671317,-2.425904 -2.42617,-2.425904 z" />
      </g>
    </g>
    <g
       id="apple-touch-icon-120x120"
       transform="matrix(1.5288936,0,0,1.5288936,-32.289288,-117.95188)">
      <circle
         style="fill:#d71f3b;fill-opacity:1;stroke:none;stroke-width:10.5833;stroke-linecap:butt;stroke-linejoin:bevel;stroke-miterlimit:4;stroke-dasharray:none"
         id="circle1178"
         cx="97.735153"
         cy="-13.423172"
         r="10.383326"
         transform="rotate(45)" />
      <path
         id="path1180"
         style="fill:#000000;fill-opacity:0.16;stroke:none;stroke-width:0.313841;stroke-linecap:butt;stroke-linejoin:bevel;stroke-miterlimit:4;stroke-dasharray:none"
         d="m 317.2207,206.60938 -25.97656,2.81835 -8.5957,42.89454 12.36133,12.19335 a 39.244067,39.244067 0 0 0 29.81445,-11.43945 39.244067,39.244067 0 0 0 11.49219,-27.58984 z"
         transform="scale(0.26458333)"
         inkscape:connector-curvature="0" />
      <g
         aria-label="P"
         transform="matrix(0.99651742,0,0,0.82313349,6.2322197,4.2044)"
         id="g1184"
         style="font-style:normal;font-weight:normal;font-size:22.3352px;line-height:1.25;font-family:sans-serif;fill:#000000;fill-opacity:1;stroke:none;stroke-width:0.55838">
        <path
           d="m 79.315233,65.43787 c 0,3.531016 -2.135572,5.454747 -4.809666,5.553218 h -2.611793 v 5.006158 H 68.791211 V 59.758422 h 5.644348 c 2.764504,-0.07429 4.879674,2.178965 4.879674,5.679448 z m -5.303242,-2.405075 h -2.118217 v 4.956474 h 2.293368 c 1.790889,0 2.272815,-1.452878 2.251019,-2.53057 -0.0249,-1.23097 -0.671317,-2.425904 -2.42617,-2.425904 z"
           style="fill:#ffffff;stroke:none;stroke-width:0.0529167;stroke-miterlimit:4;stroke-dasharray:none"
           id="path1182"
           inkscape:connector-curvature="0"
           sodipodi:nodetypes="ccccccccccccsc" />
      </g>
    </g>
    <g
       transform="matrix(1.9365986,0,0,1.9365986,-28.35137,-138.02493)"
       id="apple-touch-icon-152x152">
      <circle
         transform="rotate(45)"
         r="10.383326"
         cy="-13.423172"
         cx="97.735153"
         id="circle1827"
         style="fill:#d71f3b;fill-opacity:1;stroke:none;stroke-width:10.5833;stroke-linecap:butt;stroke-linejoin:bevel;stroke-miterlimit:4;stroke-dasharray:none" />
      <path
         inkscape:connector-curvature="0"
         transform="scale(0.26458333)"
         d="m 317.2207,206.60938 -25.97656,2.81835 -8.5957,42.89454 12.36133,12.19335 a 39.244067,39.244067 0 0 0 29.81445,-11.43945 39.244067,39.244067 0 0 0 11.49219,-27.58984 z"
         style="fill:#000000;fill-opacity:0.16;stroke:none;stroke-width:0.313841;stroke-linecap:butt;stroke-linejoin:bevel;stroke-miterlimit:4;stroke-dasharray:none"
         id="path1829" />
      <g
         style="font-style:normal;font-weight:normal;font-size:22.3352px;line-height:1.25;font-family:sans-serif;fill:#000000;fill-opacity:1;stroke:none;stroke-width:0.55838"
         id="g1833"
         transform="matrix(0.99651742,0,0,0.82313349,6.2322197,4.2044)"
         aria-label="P">
        <path
           sodipodi:nodetypes="ccccccccccccsc"
           inkscape:connector-curvature="0"
           id="path1831"
           style="fill:#ffffff;stroke:none;stroke-width:0.0529167;stroke-miterlimit:4;stroke-dasharray:none"
           d="m 79.315233,65.43787 c 0,3.531016 -2.135572,5.454747 -4.809666,5.553218 h -2.611793 v 5.006158 H 68.791211 V 59.758422 h 5.644348 c 2.764504,-0.07429 4.879674,2.178965 4.879674,5.679448 z m -5.303242,-2.405075 h -2.118217 v 4.956474 h 2.293368 c 1.790889,0 2.272815,-1.452878 2.251019,-2.53057 -0.0249,-1.23097 -0.671317,-2.425904 -2.42617,-2.425904 z" />
      </g>
    </g>
    <g
       id="apple-touch-icon-180x180"
       transform="matrix(2.2933404,0,0,2.2933404,-12.4702,-155.58881)">
      <circle
         style="fill:#d71f3b;fill-opacity:1;stroke:none;stroke-width:10.5833;stroke-linecap:butt;stroke-linejoin:bevel;stroke-miterlimit:4;stroke-dasharray:none"
         id="circle1837"
         cx="97.735153"
         cy="-13.423172"
         r="10.383326"
         transform="rotate(45)" />
      <path
         id="path1839"
         style="fill:#000000;fill-opacity:0.16;stroke:none;stroke-width:0.313841;stroke-linecap:butt;stroke-linejoin:bevel;stroke-miterlimit:4;stroke-dasharray:none"
         d="m 317.2207,206.60938 -25.97656,2.81835 -8.5957,42.89454 12.36133,12.19335 a 39.244067,39.244067 0 0 0 29.81445,-11.43945 39.244067,39.244067 0 0 0 11.49219,-27.58984 z"
         transform="scale(0.26458333)"
         inkscape:connector-curvature="0" />
      <g
         aria-label="P"
         transform="matrix(0.99651742,0,0,0.82313349,6.2322197,4.2044)"
         id="g1843"
         style="font-style:normal;font-weight:normal;font-size:22.3352px;line-height:1.25;font-family:sans-serif;fill:#000000;fill-opacity:1;stroke:none;stroke-width:0.55838">
        <path
           d="m 79.315233,65.43787 c 0,3.531016 -2.135572,5.454747 -4.809666,5.553218 h -2.611793 v 5.006158 H 68.791211 V 59.758422 h 5.644348 c 2.764504,-0.07429 4.879674,2.178965 4.879674,5.679448 z m -5.303242,-2.405075 h -2.118217 v 4.956474 h 2.293368 c 1.790889,0 2.272815,-1.452878 2.251019,-2.53057 -0.0249,-1.23097 -0.671317,-2.425904 -2.42617,-2.425904 z"
           style="fill:#ffffff;stroke:none;stroke-width:0.0529167;stroke-miterlimit:4;stroke-dasharray:none"
           id="path1841"
           inkscape:connector-curvature="0"
           sodipodi:nodetypes="ccccccccccccsc" />
      </g>
    </g>
    <g
       transform="matrix(0.7644468,0,0,0.7644468,-16.125049,-80.314887)"
       id="apple-touch-icon-60x60">
      <circle
         transform="rotate(45)"
         r="10.383326"
         cy="-13.423172"
         cx="97.735153"
         id="circle1847"
         style="fill:#d71f3b;fill-opacity:1;stroke:none;stroke-width:10.5833;stroke-linecap:butt;stroke-linejoin:bevel;stroke-miterlimit:4;stroke-dasharray:none" />
      <path
         inkscape:connector-curvature="0"
         transform="scale(0.26458333)"
         d="m 317.2207,206.60938 -25.97656,2.81835 -8.5957,42.89454 12.36133,12.19335 a 39.244067,39.244067 0 0 0 29.81445,-11.43945 39.244067,39.244067 0 0 0 11.49219,-27.58984 z"
         style="fill:#000000;fill-opacity:0.16;stroke:none;stroke-width:0.313841;stroke-linecap:butt;stroke-linejoin:bevel;stroke-miterlimit:4;stroke-dasharray:none"
         id="path1849" />
      <g
         style="font-style:normal;font-weight:normal;font-size:22.3352px;line-height:1.25;font-family:sans-serif;fill:#000000;fill-opacity:1;stroke:none;stroke-width:0.55838"
         id="g1853"
         transform="matrix(0.99651742,0,0,0.82313349,6.2322197,4.2044)"
         aria-label="P">
        <path
           sodipodi:nodetypes="ccccccccccccsc"
           inkscape:connector-curvature="0"
           id="path1851"
           style="fill:#ffffff;stroke:none;stroke-width:0.0529167;stroke-miterlimit:4;stroke-dasharray:none"
           d="m 79.315233,65.43787 c 0,3.531016 -2.135572,5.454747 -4.809666,5.553218 h -2.611793 v 5.006158 H 68.791211 V 59.758422 h 5.644348 c 2.764504,-0.07429 4.879674,2.178965 4.879674,5.679448 z m -5.303242,-2.405075 h -2.118217 v 4.956474 h 2.293368 c 1.790889,0 2.272815,-1.452878 2.251019,-2.53057 -0.0249,-1.23097 -0.671317,-2.425904 -2.42617,-2.425904 z" />
      </g>
    </g>
    <g
       id="apple-touch-icon-76x76"
       transform="matrix(0.96829928,0,0,0.96829928,-14.155823,-90.351407)">
      <circle
         style="fill:#d71f3b;fill-opacity:1;stroke:none;stroke-width:10.5833;stroke-linecap:butt;stroke-linejoin:bevel;stroke-miterlimit:4;stroke-dasharray:none"
         id="circle1857"
         cx="97.735153"
         cy="-13.423172"
         r="10.383326"
         transform="rotate(45)" />
      <path
         id="path1859"
         style="fill:#000000;fill-opacity:0.16;stroke:none;stroke-width:0.313841;stroke-linecap:butt;stroke-linejoin:bevel;stroke-miterlimit:4;stroke-dasharray:none"
         d="m 317.2207,206.60938 -25.97656,2.81835 -8.5957,42.89454 12.36133,12.19335 a 39.244067,39.244067 0 0 0 29.81445,-11.43945 39.244067,39.244067 0 0 0 11.49219,-27.58984 z"
         transform="scale(0.26458333)"
         inkscape:connector-curvature="0" />
      <g
         aria-label="P"
         transform="matrix(0.99651742,0,0,0.82313349,6.2322197,4.2044)"
         id="g1863"
         style="font-style:normal;font-weight:normal;font-size:22.3352px;line-height:1.25;font-family:sans-serif;fill:#000000;fill-opacity:1;stroke:none;stroke-width:0.55838">
        <path
           d="m 79.315233,65.43787 c 0,3.531016 -2.135572,5.454747 -4.809666,5.553218 h -2.611793 v 5.006158 H 68.791211 V 59.758422 h 5.644348 c 2.764504,-0.07429 4.879674,2.178965 4.879674,5.679448 z m -5.303242,-2.405075 h -2.118217 v 4.956474 h 2.293368 c 1.790889,0 2.272815,-1.452878 2.251019,-2.53057 -0.0249,-1.23097 -0.671317,-2.425904 -2.42617,-2.425904 z"
           style="fill:#ffffff;stroke:none;stroke-width:0.0529167;stroke-miterlimit:4;stroke-dasharray:none"
           id="path1861"
           inkscape:connector-curvature="0"
           sodipodi:nodetypes="ccccccccccccsc" />
      </g>
    </g>
    <g
       transform="matrix(2.2933404,0,0,2.2933404,35.15492,-155.58881)"
       id="apple-touch-icon">
      <circle
         transform="rotate(45)"
         r="10.383326"
         cy="-13.423172"
         cx="97.735153"
         id="circle1929"
         style="fill:#d71f3b;fill-opacity:1;stroke:none;stroke-width:10.5833;stroke-linecap:butt;stroke-linejoin:bevel;stroke-miterlimit:4;stroke-dasharray:none" />
      <path
         inkscape:connector-curvature="0"
         transform="scale(0.26458333)"
         d="m 317.2207,206.60938 -25.97656,2.81835 -8.5957,42.89454 12.36133,12.19335 a 39.244067,39.244067 0 0 0 29.81445,-11.43945 39.244067,39.244067 0 0 0 11.49219,-27.58984 z"
         style="fill:#000000;fill-opacity:0.16;stroke:none;stroke-width:0.313841;stroke-linecap:butt;stroke-linejoin:bevel;stroke-miterlimit:4;stroke-dasharray:none"
         id="path1931" />
      <g
         style="font-style:normal;font-weight:normal;font-size:22.3352px;line-height:1.25;font-family:sans-serif;fill:#000000;fill-opacity:1;stroke:none;stroke-width:0.55838"
         id="g1935"
         transform="matrix(0.99651742,0,0,0.82313349,6.2322197,4.2044)"
         aria-label="P">
        <path
           sodipodi:nodetypes="ccccccccccccsc"
           inkscape:connector-curvature="0"
           id="path1933"
           style="fill:#ffffff;stroke:none;stroke-width:0.0529167;stroke-miterlimit:4;stroke-dasharray:none"
           d="m 79.315233,65.43787 c 0,3.531016 -2.135572,5.454747 -4.809666,5.553218 h -2.611793 v 5.006158 H 68.791211 V 59.758422 h 5.644348 c 2.764504,-0.07429 4.879674,2.178965 4.879674,5.679448 z m -5.303242,-2.405075 h -2.118217 v 4.956474 h 2.293368 c 1.790889,0 2.272815,-1.452878 2.251019,-2.53057 -0.0249,-1.23097 -0.671317,-2.425904 -2.42617,-2.425904 z" />
      </g>
    </g>
    <g
       id="msapplication-icon-144x144"
       transform="matrix(1.8346723,0,0,1.8346723,-125.15672,94.84502)">
      <circle
         style="fill:#d71f3b;fill-opacity:1;stroke:none;stroke-width:10.5833;stroke-linecap:butt;stroke-linejoin:bevel;stroke-miterlimit:4;stroke-dasharray:none"
         id="circle2021"
         cx="97.735153"
         cy="-13.423172"
         r="10.383326"
         transform="rotate(45)" />
      <path
         id="path2023"
         style="fill:#001a32;fill-opacity:0.16;stroke:none;stroke-width:0.313841;stroke-linecap:butt;stroke-linejoin:bevel;stroke-miterlimit:4;stroke-dasharray:none"
         d="m 317.2207,206.60938 -25.97656,2.81835 -8.5957,42.89454 12.36133,12.19335 a 39.244067,39.244067 0 0 0 29.81445,-11.43945 39.244067,39.244067 0 0 0 11.49219,-27.58984 z"
         transform="scale(0.26458333)"
         inkscape:connector-curvature="0" />
      <g
         aria-label="P"
         transform="matrix(0.99651742,0,0,0.82313349,6.2322197,4.2044)"
         id="g2027"
         style="font-style:normal;font-weight:normal;font-size:22.3352px;line-height:1.25;font-family:sans-serif;fill:#000000;fill-opacity:1;stroke:none;stroke-width:0.55838">
        <path
           d="m 79.315233,65.43787 c 0,3.531016 -2.135572,5.454747 -4.809666,5.553218 h -2.611793 v 5.006158 H 68.791211 V 59.758422 h 5.644348 c 2.764504,-0.07429 4.879674,2.178965 4.879674,5.679448 z m -5.303242,-2.405075 h -2.118217 v 4.956474 h 2.293368 c 1.790889,0 2.272815,-1.452878 2.251019,-2.53057 -0.0249,-1.23097 -0.671317,-2.425904 -2.42617,-2.425904 z"
           style="fill:#ffffff;stroke:none;stroke-width:0.0529167;stroke-miterlimit:4;stroke-dasharray:none"
           id="path2025"
           inkscape:connector-curvature="0"
           sodipodi:nodetypes="ccccccccccccsc" />
      </g>
    </g>
    <g
       id="mstile-310x150"
       transform="translate(3.0925303)">
      <rect
         y="234.70615"
         x="77.787483"
         height="39.6875"
         width="82.020836"
         id="rect2138"
         style="fill:#e3d7f4;fill-opacity:1;stroke-width:0.293908;stroke-linejoin:bevel" />
      <path
         transform="scale(0.26458333)"
         d="m 294,887.07812 v 149.28518 l 0.7168,0.7148 h 47.57422 L 492.68164,887.07812 Z"
         style="fill:#c6afe9;fill-opacity:0.161943;stroke-width:0.263348;stroke-linejoin:bevel"
         id="rect2234"
         inkscape:connector-curvature="0" />
      <path
         inkscape:connector-curvature="0"
         d="m 130.00447,234.70608 -15.875,15.83366 25.4062,23.85383 h 20.27266 V 250.83946 L 142.6254,234.70608 Z"
         style="fill:#ffffff;fill-opacity:0.360324;stroke:none;stroke-width:0.0315762;stroke-linejoin:bevel"
         id="rect2236" />
      <path
         transform="scale(0.26458333)"
         d="m 294,887.07812 v 57.56446 h 310 v -57.56446 z"
         style="fill:#ffffff;fill-opacity:0.360324;stroke:none;stroke-width:0.286342;stroke-linejoin:bevel"
         id="rect2240"
         inkscape:connector-curvature="0" />
      <g
         style="stroke:#11002b;stroke-opacity:0.133603"
         id="g2267">
        <path
           transform="scale(0.26458333)"
           d="M 294,944.64258 H 604"
           style="fill:#ffffff;fill-opacity:0.360324;stroke:#11002b;stroke-width:0.286342;stroke-linejoin:bevel;stroke-opacity:0.133603"
           id="path2258"
           inkscape:connector-curvature="0"
           sodipodi:nodetypes="cc" />
        <path
           d="m 130.00447,234.70608 -15.875,15.83366 25.4062,23.85383 m 20.27266,-23.55411 -17.18293,-16.13338"
           style="fill:none;fill-opacity:0.360324;stroke:#11002b;stroke-width:0.0315762;stroke-linejoin:bevel;stroke-opacity:0.133603"
           id="path2260"
           inkscape:connector-curvature="0"
           sodipodi:nodetypes="ccccc" />
        <path
           transform="scale(0.26458333)"
           d="m 342.29102,1037.0781 89.26785,-89.03597"
           style="fill:#c6afe9;fill-opacity:0.161943;stroke:#11002b;stroke-width:0.263348;stroke-linejoin:bevel;stroke-opacity:0.133603"
           id="path2262"
           inkscape:connector-curvature="0"
           sodipodi:nodetypes="cc" />
      </g>
      <g
         id="g2272">
        <path
           inkscape:connector-curvature="0"
           d="m 130.82773,267.4089 a 18.185383,18.185383 0 0 1 -25.71802,-1e-5 18.185383,18.185383 0 0 1 0,-25.71801 18.185383,18.185383 0 0 1 25.71802,0 18.185383,18.185383 0 0 1 0,25.71802"
           style="fill:#d71f3b;fill-opacity:1;stroke:none;stroke-width:18.5356;stroke-linecap:butt;stroke-linejoin:bevel;stroke-miterlimit:4;stroke-dasharray:none"
           id="circle2142" />
        <path
           id="path2144"
           style="fill:url(#linearGradient2210);fill-opacity:1;stroke:none;stroke-width:0.54966;stroke-linecap:butt;stroke-linejoin:bevel;stroke-miterlimit:4;stroke-dasharray:none"
           d="m 481.15039,929.29883 -45.49609,4.93555 -15.05274,75.12502 23.64258,21.4316 a 68.732156,68.732156 0 0 0 50.22266,-20.1113 68.732156,68.732156 0 0 0 20.00586,-52.75001 z"
           transform="scale(0.26458333)"
           inkscape:connector-curvature="0" />
        <path
           sodipodi:nodetypes="ccccccccccccsc"
           inkscape:connector-curvature="0"
           id="path2146"
           style="font-style:normal;font-weight:normal;font-size:22.3352px;line-height:1.25;font-family:sans-serif;fill:#ffffff;fill-opacity:1;stroke:none;stroke-width:0.0839375;stroke-miterlimit:4;stroke-dasharray:none"
           d="m 129.65133,251.83687 c 0,5.09045 -3.72722,7.86377 -8.39432,8.00573 h -4.55837 v 7.21706 h -5.41491 v -23.4105 h 9.85109 c 4.8249,-0.10712 8.51651,3.14128 8.51651,8.18771 z m -9.25576,-3.46725 h -3.69693 v 7.14544 h 4.00262 c 3.12564,0 3.96675,-2.09453 3.92871,-3.64817 -0.0435,-1.77462 -1.17165,-3.49727 -4.2344,-3.49727 z" />
      </g>
    </g>
    <g
       transform="translate(25.098909)"
       id="mstile-150x150">
      <path
         inkscape:connector-curvature="0"
         id="path2383"
         style="fill:#e3d7f4;fill-opacity:1;stroke-width:1.11083;stroke-linejoin:bevel"
         d="M 60.824219,887.07812 V 1037.0781 H 210.82422 V 887.07812 Z"
         transform="scale(0.26458333)" />
      <path
         inkscape:connector-curvature="0"
         id="path2385"
         style="fill:#c6afe9;fill-opacity:0.161943;stroke-width:0.263348;stroke-linejoin:bevel"
         d="M 60.824219,887.07812 V 1008.5781 L 182.64062,887.07812 Z"
         transform="scale(0.26458333)" />
      <path
         inkscape:connector-curvature="0"
         id="path2387"
         style="fill:#ffffff;fill-opacity:0.360324;stroke:none;stroke-width:0.119343;stroke-linejoin:bevel"
         d="m 181.31445,887.07812 -60,59.84376 89.50977,84.04102 V 887.07812 Z"
         transform="scale(0.26458333)" />
      <path
         inkscape:connector-curvature="0"
         id="path2389"
         style="fill:#ffffff;fill-opacity:0.360324;stroke:none;stroke-width:0.286342;stroke-linejoin:bevel"
         d="m 60.824219,887.07812 v 57.56446 H 210.82422 v -57.56446 z"
         transform="scale(0.26458333)" />
      <path
         sodipodi:nodetypes="cc"
         inkscape:connector-curvature="0"
         id="path2391"
         style="fill:#ffffff;fill-opacity:0.360324;stroke:#11002b;stroke-width:0.0757613;stroke-linejoin:bevel;stroke-opacity:0.133603"
         d="M 16.104465,249.93668 H 55.750119" />
      <path
         sodipodi:nodetypes="ccc"
         inkscape:connector-curvature="0"
         id="path2393"
         style="fill:none;fill-opacity:0.360324;stroke:#11002b;stroke-width:0.0315762;stroke-linejoin:bevel;stroke-opacity:0.133603"
         d="m 47.97282,234.70608 -15.875,15.83366 23.64083,22.19633" />
      <path
         sodipodi:nodetypes="cc"
         inkscape:connector-curvature="0"
         id="path2395"
         style="fill:#c6afe9;fill-opacity:0.161943;stroke:#11002b;stroke-width:0.0696775;stroke-linejoin:bevel;stroke-opacity:0.133603"
         d="M 16.126649,266.84351 32.151633,250.83614" />
      <g
         id="g2403"
         transform="translate(-82.03165)">
        <path
           inkscape:connector-curvature="0"
           d="m 130.82773,267.4089 a 18.185383,18.185383 0 0 1 -25.71802,-1e-5 18.185383,18.185383 0 0 1 0,-25.71801 18.185383,18.185383 0 0 1 25.71802,0 18.185383,18.185383 0 0 1 0,25.71802"
           style="fill:#d71f3b;fill-opacity:1;stroke:none;stroke-width:18.5356;stroke-linecap:butt;stroke-linejoin:bevel;stroke-miterlimit:4;stroke-dasharray:none"
           id="path2397" />
        <path
           inkscape:connector-curvature="0"
           id="path2399"
           style="fill:url(#linearGradient2435);fill-opacity:1;stroke:none;stroke-width:0.54966;stroke-linecap:butt;stroke-linejoin:bevel;stroke-miterlimit:4;stroke-dasharray:none"
           d="m 481.15039,929.29883 -45.49609,4.93555 -15.05274,75.12502 23.64258,21.4316 a 68.732156,68.732156 0 0 0 50.22266,-20.1113 68.732156,68.732156 0 0 0 20.00586,-52.75001 z"
           transform="scale(0.26458333)" />
        <path
           sodipodi:nodetypes="ccccccccccccsc"
           inkscape:connector-curvature="0"
           id="path2401"
           style="font-style:normal;font-weight:normal;font-size:22.3352px;line-height:1.25;font-family:sans-serif;fill:#ffffff;fill-opacity:1;stroke:none;stroke-width:0.0839375;stroke-miterlimit:4;stroke-dasharray:none"
           d="m 129.65133,251.83687 c 0,5.09045 -3.72722,7.86377 -8.39432,8.00573 h -4.55837 v 7.21706 h -5.41491 v -23.4105 h 9.85109 c 4.8249,-0.10712 8.51651,3.14128 8.51651,8.18771 z m -9.25576,-3.46725 h -3.69693 v 7.14544 h 4.00262 c 3.12564,0 3.96675,-2.09453 3.92871,-3.64817 -0.0435,-1.77462 -1.17165,-3.49727 -4.2344,-3.49727 z" />
      </g>
    </g>
    <g
       id="mstile-144x144"
       transform="matrix(0.96000001,0,0,0.9597296,-12.357897,9.4512639)">
      <path
         transform="scale(0.26458333)"
         d="M 60.824219,887.07812 V 1037.0781 H 210.82422 V 887.07812 Z"
         style="fill:#e3d7f4;fill-opacity:1;stroke-width:1.11083;stroke-linejoin:bevel"
         id="path2409"
         inkscape:connector-curvature="0" />
      <path
         transform="scale(0.26458333)"
         d="M 60.824219,887.07812 V 1008.5781 L 182.64062,887.07812 Z"
         style="fill:#c6afe9;fill-opacity:0.161943;stroke-width:0.263348;stroke-linejoin:bevel"
         id="path2411"
         inkscape:connector-curvature="0" />
      <path
         transform="scale(0.26458333)"
         d="m 181.31445,887.07812 -60,59.84376 89.50977,84.04102 V 887.07812 Z"
         style="fill:#ffffff;fill-opacity:0.360324;stroke:none;stroke-width:0.119343;stroke-linejoin:bevel"
         id="path2413"
         inkscape:connector-curvature="0" />
      <path
         transform="scale(0.26458333)"
         d="m 60.824219,887.07812 v 57.56446 H 210.82422 v -57.56446 z"
         style="fill:#ffffff;fill-opacity:0.360324;stroke:none;stroke-width:0.286342;stroke-linejoin:bevel"
         id="path2415"
         inkscape:connector-curvature="0" />
      <path
         d="M 16.104465,249.93668 H 55.750119"
         style="fill:#ffffff;fill-opacity:0.360324;stroke:#11002b;stroke-width:0.0757613;stroke-linejoin:bevel;stroke-opacity:0.133603"
         id="path2417"
         inkscape:connector-curvature="0"
         sodipodi:nodetypes="cc" />
      <path
         d="m 47.97282,234.70608 -15.875,15.83366 23.64083,22.19633"
         style="fill:none;fill-opacity:0.360324;stroke:#11002b;stroke-width:0.0315762;stroke-linejoin:bevel;stroke-opacity:0.133603"
         id="path2419"
         inkscape:connector-curvature="0"
         sodipodi:nodetypes="ccc" />
      <path
         d="M 16.126649,266.84351 32.151633,250.83614"
         style="fill:#c6afe9;fill-opacity:0.161943;stroke:#11002b;stroke-width:0.0696775;stroke-linejoin:bevel;stroke-opacity:0.133603"
         id="path2421"
         inkscape:connector-curvature="0"
         sodipodi:nodetypes="cc" />
      <g
         transform="translate(-82.03165)"
         id="g2429">
        <path
           id="path2423"
           style="fill:#d71f3b;fill-opacity:1;stroke:none;stroke-width:18.5356;stroke-linecap:butt;stroke-linejoin:bevel;stroke-miterlimit:4;stroke-dasharray:none"
           d="m 130.82773,267.4089 a 18.185383,18.185383 0 0 1 -25.71802,-1e-5 18.185383,18.185383 0 0 1 0,-25.71801 18.185383,18.185383 0 0 1 25.71802,0 18.185383,18.185383 0 0 1 0,25.71802"
           inkscape:connector-curvature="0" />
        <path
           transform="scale(0.26458333)"
           d="m 481.15039,929.29883 -45.49609,4.93555 -15.05274,75.12502 23.64258,21.4316 a 68.732156,68.732156 0 0 0 50.22266,-20.1113 68.732156,68.732156 0 0 0 20.00586,-52.75001 z"
           style="fill:url(#linearGradient2433);fill-opacity:1;stroke:none;stroke-width:0.54966;stroke-linecap:butt;stroke-linejoin:bevel;stroke-miterlimit:4;stroke-dasharray:none"
           id="path2425"
           inkscape:connector-curvature="0" />
        <path
           d="m 129.65133,251.83687 c 0,5.09045 -3.72722,7.86377 -8.39432,8.00573 h -4.55837 v 7.21706 h -5.41491 v -23.4105 h 9.85109 c 4.8249,-0.10712 8.51651,3.14128 8.51651,8.18771 z m -9.25576,-3.46725 h -3.69693 v 7.14544 h 4.00262 c 3.12564,0 3.96675,-2.09453 3.92871,-3.64817 -0.0435,-1.77462 -1.17165,-3.49727 -4.2344,-3.49727 z"
           style="font-style:normal;font-weight:normal;font-size:22.3352px;line-height:1.25;font-family:sans-serif;fill:#ffffff;fill-opacity:1;stroke:none;stroke-width:0.0839375;stroke-miterlimit:4;stroke-dasharray:none"
           id="path2427"
           inkscape:connector-curvature="0"
           sodipodi:nodetypes="ccccccccccccsc" />
      </g>
    </g>
    <g
       id="mstile-310x310"
       transform="translate(0.50544629)">
      <rect
         style="fill:#e3d7f4;fill-opacity:1;stroke-width:0.422506;stroke-linejoin:bevel"
         id="rect2437"
         width="82.015427"
         height="82.020836"
         x="162.41216"
         y="234.70615" />
      <path
         inkscape:connector-curvature="0"
         id="path2443"
         style="fill:#ffffff;fill-opacity:0.360324;stroke:none;stroke-width:0.0770111;stroke-linejoin:bevel"
         d="m 162.40675,255.20456 v 15.73829 h 82.01542 v -15.73829 z" />
      <path
         sodipodi:nodetypes="ccccccc"
         inkscape:connector-curvature="0"
         id="path2439"
         style="fill:#c6afe9;fill-opacity:0.161943;stroke-width:0.070827;stroke-linejoin:bevel"
         d="m 162.40675,255.20456 v 40.81498 l 0.18964,0.19544 -0.11264,12.98663 49.09178,-50.29192 3.72631,-3.70513 z" />
      <path
         sodipodi:nodetypes="cccccccc"
         id="path2441"
         style="fill:#ffffff;fill-opacity:0.360324;stroke:none;stroke-width:0.0320971;stroke-linejoin:bevel"
         d="m 221.02764,249.45314 -22.28132,22.11287 45.60879,44.4855 0.0431,-10.18716 0.024,-9.64938 v -24.33925 l -17.1818,-16.67116 z"
         inkscape:connector-curvature="0" />
      <path
         d="m 162.40675,270.94285 h 82.01542"
         style="fill:#ffffff;fill-opacity:0.360324;stroke:#11002b;stroke-width:0.0770111;stroke-linejoin:bevel;stroke-opacity:0.133603"
         id="path2445"
         inkscape:connector-curvature="0"
         sodipodi:nodetypes="cc" />
      <path
         d="m 221.06167,249.41603 -9.60406,9.57291 -12.23176,12.59416 45.11469,44.47066 m 0.0348,-44.2747 -23.26178,-22.27758"
         style="fill:none;fill-opacity:0.360324;stroke:#11002b;stroke-width:0.0320971;stroke-linejoin:bevel;stroke-opacity:0.133603"
         id="path2447"
         inkscape:connector-curvature="0"
         sodipodi:nodetypes="cccccc" />
      <path
         d="m 162.61603,309.33831 36.1841,-37.46602"
         style="fill:#c6afe9;fill-opacity:0.161943;stroke:#11002b;stroke-width:0.070827;stroke-linejoin:bevel;stroke-opacity:0.133603"
         id="path2449"
         inkscape:connector-curvature="0"
         sodipodi:nodetypes="cc" />
      <g
         transform="translate(0.82647597,21.166677)"
         id="g2488">
        <path
           id="path2453"
           style="fill:#d71f3b;fill-opacity:1;stroke:none;stroke-width:18.5356;stroke-linecap:butt;stroke-linejoin:bevel;stroke-miterlimit:4;stroke-dasharray:none"
           d="m 215.4524,267.4089 a 18.185383,18.185383 0 0 1 -25.71802,-1e-5 18.185383,18.185383 0 0 1 0,-25.71801 18.185383,18.185383 0 0 1 25.71802,0 18.185383,18.185383 0 0 1 0,25.71802"
           inkscape:connector-curvature="0" />
        <path
           inkscape:connector-curvature="0"
           d="m 211.92904,245.87698 -12.0375,1.30586 -3.98271,19.87683 6.25543,5.67045 a 18.185383,18.185383 0 0 0 13.28808,-5.32112 18.185383,18.185383 0 0 0 5.29322,-13.95677 z"
           style="fill:url(#linearGradient2463);fill-opacity:1;stroke:none;stroke-width:0.145431;stroke-linecap:butt;stroke-linejoin:bevel;stroke-miterlimit:4;stroke-dasharray:none"
           id="path2455" />
        <path
           d="m 214.276,251.83687 c 0,5.09045 -3.72722,7.86377 -8.39432,8.00573 h -4.55837 v 7.21706 h -5.41491 v -23.4105 h 9.85109 c 4.8249,-0.10712 8.51651,3.14128 8.51651,8.18771 z m -9.25576,-3.46725 h -3.69693 v 7.14544 h 4.00262 c 3.12564,0 3.96675,-2.09453 3.92871,-3.64817 -0.0435,-1.77462 -1.17165,-3.49727 -4.2344,-3.49727 z"
           style="font-style:normal;font-weight:normal;font-size:22.3352px;line-height:1.25;font-family:sans-serif;fill:#ffffff;fill-opacity:1;stroke:none;stroke-width:0.0839375;stroke-miterlimit:4;stroke-dasharray:none"
           id="path2457"
           inkscape:connector-curvature="0"
           sodipodi:nodetypes="ccccccccccccsc" />
      </g>
      <path
         sodipodi:nodetypes="cc"
         inkscape:connector-curvature="0"
         id="path2513"
         style="fill:#ffffff;fill-opacity:0.360324;stroke:#11002b;stroke-width:0.0770111;stroke-linejoin:bevel;stroke-opacity:0.133603"
         d="m 162.80359,255.22219 h 81.22034" />
    </g>
    <g
       id="mstile-70x70"
       transform="matrix(0.46666667,0,0,0.46666667,237.42887,125.17061)">
      <path
         transform="scale(0.26458333)"
         d="M 60.824219,887.07812 V 1037.0781 H 210.82422 V 887.07812 Z"
         style="fill:#e3d7f4;fill-opacity:1;stroke-width:1.11083;stroke-linejoin:bevel"
         id="path2529"
         inkscape:connector-curvature="0" />
      <path
         transform="scale(0.26458333)"
         d="M 60.824219,887.07812 V 1008.5781 L 182.64062,887.07812 Z"
         style="fill:#c6afe9;fill-opacity:0.161943;stroke-width:0.263348;stroke-linejoin:bevel"
         id="path2531"
         inkscape:connector-curvature="0" />
      <path
         transform="scale(0.26458333)"
         d="m 181.31445,887.07812 -60,59.84376 89.50977,84.04102 V 887.07812 Z"
         style="fill:#ffffff;fill-opacity:0.360324;stroke:none;stroke-width:0.119343;stroke-linejoin:bevel"
         id="path2533"
         inkscape:connector-curvature="0" />
      <path
         transform="scale(0.26458333)"
         d="m 60.824219,887.07812 v 57.56446 H 210.82422 v -57.56446 z"
         style="fill:#ffffff;fill-opacity:0.360324;stroke:none;stroke-width:0.286342;stroke-linejoin:bevel"
         id="path2535"
         inkscape:connector-curvature="0" />
      <path
         d="M 16.104465,249.93668 H 55.750119"
         style="fill:#ffffff;fill-opacity:0.360324;stroke:#11002b;stroke-width:0.0757613;stroke-linejoin:bevel;stroke-opacity:0.133603"
         id="path2537"
         inkscape:connector-curvature="0"
         sodipodi:nodetypes="cc" />
      <path
         d="m 47.97282,234.70608 -15.875,15.83366 23.64083,22.19633"
         style="fill:none;fill-opacity:0.360324;stroke:#11002b;stroke-width:0.0315762;stroke-linejoin:bevel;stroke-opacity:0.133603"
         id="path2539"
         inkscape:connector-curvature="0"
         sodipodi:nodetypes="ccc" />
      <path
         d="M 16.126649,266.84351 32.151633,250.83614"
         style="fill:#c6afe9;fill-opacity:0.161943;stroke:#11002b;stroke-width:0.0696775;stroke-linejoin:bevel;stroke-opacity:0.133603"
         id="path2541"
         inkscape:connector-curvature="0"
         sodipodi:nodetypes="cc" />
      <g
         transform="translate(-82.03165)"
         id="g2549">
        <path
           id="path2543"
           style="fill:#d71f3b;fill-opacity:1;stroke:none;stroke-width:18.5356;stroke-linecap:butt;stroke-linejoin:bevel;stroke-miterlimit:4;stroke-dasharray:none"
           d="m 130.82773,267.4089 a 18.185383,18.185383 0 0 1 -25.71802,-1e-5 18.185383,18.185383 0 0 1 0,-25.71801 18.185383,18.185383 0 0 1 25.71802,0 18.185383,18.185383 0 0 1 0,25.71802"
           inkscape:connector-curvature="0" />
        <path
           transform="scale(0.26458333)"
           d="m 481.15039,929.29883 -45.49609,4.93555 -15.05274,75.12502 23.64258,21.4316 a 68.732156,68.732156 0 0 0 50.22266,-20.1113 68.732156,68.732156 0 0 0 20.00586,-52.75001 z"
           style="fill:url(#linearGradient2553);fill-opacity:1;stroke:none;stroke-width:0.54966;stroke-linecap:butt;stroke-linejoin:bevel;stroke-miterlimit:4;stroke-dasharray:none"
           id="path2545"
           inkscape:connector-curvature="0" />
        <path
           d="m 129.65133,251.83687 c 0,5.09045 -3.72722,7.86377 -8.39432,8.00573 h -4.55837 v 7.21706 h -5.41491 v -23.4105 h 9.85109 c 4.8249,-0.10712 8.51651,3.14128 8.51651,8.18771 z m -9.25576,-3.46725 h -3.69693 v 7.14544 h 4.00262 c 3.12564,0 3.96675,-2.09453 3.92871,-3.64817 -0.0435,-1.77462 -1.17165,-3.49727 -4.2344,-3.49727 z"
           style="font-style:normal;font-weight:normal;font-size:22.3352px;line-height:1.25;font-family:sans-serif;fill:#ffffff;fill-opacity:1;stroke:none;stroke-width:0.0839375;stroke-miterlimit:4;stroke-dasharray:none"
           id="path2547"
           inkscape:connector-curvature="0"
           sodipodi:nodetypes="ccccccccccccsc" />
      </g>
    </g>
    <g
       transform="matrix(0.30576972,0,0,0.30576972,-16.62546,-15.054334)"
       id="favicon-24x24">
      <circle
         transform="rotate(45)"
         r="10.383326"
         cy="-13.423172"
         cx="97.735153"
         id="circle2579"
         style="fill:#d71f3b;fill-opacity:1;stroke:none;stroke-width:10.5833;stroke-linecap:butt;stroke-linejoin:bevel;stroke-miterlimit:4;stroke-dasharray:none" />
      <path
         inkscape:connector-curvature="0"
         transform="scale(0.26458333)"
         d="m 317.2207,206.60938 -25.97656,2.81835 -8.5957,42.89454 12.36133,12.19335 a 39.244067,39.244067 0 0 0 29.81445,-11.43945 39.244067,39.244067 0 0 0 11.49219,-27.58984 z"
         style="fill:#000000;fill-opacity:0.16;stroke:none;stroke-width:0.313841;stroke-linecap:butt;stroke-linejoin:bevel;stroke-miterlimit:4;stroke-dasharray:none"
         id="path2581" />
      <g
         style="font-style:normal;font-weight:normal;font-size:22.3352px;line-height:1.25;font-family:sans-serif;fill:#000000;fill-opacity:1;stroke:none;stroke-width:0.55838"
         id="g2585"
         transform="matrix(0.99651742,0,0,0.82313349,6.2322197,4.2044)"
         aria-label="P">
        <path
           sodipodi:nodetypes="ccccccccccccsc"
           inkscape:connector-curvature="0"
           id="path2583"
           style="fill:#ffffff;stroke:none;stroke-width:0.0529167;stroke-miterlimit:4;stroke-dasharray:none"
           d="m 79.315233,65.43787 c 0,3.531016 -2.135572,5.454747 -4.809666,5.553218 h -2.611793 v 5.006158 H 68.791211 V 59.758422 h 5.644348 c 2.764504,-0.07429 4.879674,2.178965 4.879674,5.679448 z m -5.303242,-2.405075 h -2.118217 v 4.956474 h 2.293368 c 1.790889,0 2.272815,-1.452878 2.251019,-2.53057 -0.0249,-1.23097 -0.671317,-2.425904 -2.42617,-2.425904 z" />
      </g>
    </g>
    <g
       id="favicon-32x32"
       transform="matrix(0.40770496,0,0,0.40770496,-17.229226,-20.073039)">
      <circle
         style="fill:#d71f3b;fill-opacity:1;stroke:none;stroke-width:10.5833;stroke-linecap:butt;stroke-linejoin:bevel;stroke-miterlimit:4;stroke-dasharray:none"
         id="circle2589"
         cx="97.735153"
         cy="-13.423172"
         r="10.383326"
         transform="rotate(45)" />
      <path
         id="path2591"
         style="fill:#000000;fill-opacity:0.16;stroke:none;stroke-width:0.313841;stroke-linecap:butt;stroke-linejoin:bevel;stroke-miterlimit:4;stroke-dasharray:none"
         d="m 317.2207,206.60938 -25.97656,2.81835 -8.5957,42.89454 12.36133,12.19335 a 39.244067,39.244067 0 0 0 29.81445,-11.43945 39.244067,39.244067 0 0 0 11.49219,-27.58984 z"
         transform="scale(0.26458333)"
         inkscape:connector-curvature="0" />
      <g
         aria-label="P"
         transform="matrix(0.99651742,0,0,0.82313349,6.2322197,4.2044)"
         id="g2595"
         style="font-style:normal;font-weight:normal;font-size:22.3352px;line-height:1.25;font-family:sans-serif;fill:#000000;fill-opacity:1;stroke:none;stroke-width:0.55838">
        <path
           d="m 79.315233,65.43787 c 0,3.531016 -2.135572,5.454747 -4.809666,5.553218 h -2.611793 v 5.006158 H 68.791211 V 59.758422 h 5.644348 c 2.764504,-0.07429 4.879674,2.178965 4.879674,5.679448 z m -5.303242,-2.405075 h -2.118217 v 4.956474 h 2.293368 c 1.790889,0 2.272815,-1.452878 2.251019,-2.53057 -0.0249,-1.23097 -0.671317,-2.425904 -2.42617,-2.425904 z"
           style="fill:#ffffff;stroke:none;stroke-width:0.0529167;stroke-miterlimit:4;stroke-dasharray:none"
           id="path2593"
           inkscape:connector-curvature="0"
           sodipodi:nodetypes="ccccccccccccsc" />
      </g>
    </g>
  </g>
</svg>
