<?xml version="1.0" encoding="UTF-8" standalone="no"?>
<svg
   xmlns:dc="http://purl.org/dc/elements/1.1/"
   xmlns:cc="http://creativecommons.org/ns#"
   xmlns:rdf="http://www.w3.org/1999/02/22-rdf-syntax-ns#"
   xmlns:svg="http://www.w3.org/2000/svg"
   xmlns="http://www.w3.org/2000/svg"
   xmlns:sodipodi="http://sodipodi.sourceforge.net/DTD/sodipodi-0.dtd"
   xmlns:inkscape="http://www.inkscape.org/namespaces/inkscape"
   width="16"
   height="16"
   viewBox="0 0 16 16"
   fill="none"
   version="1.1"
   id="svg876"
   sodipodi:docname="safari-pinned-tab.svg"
   inkscape:version="1.0rc1 (09960d6, 2020-04-09)">
  <metadata
     id="metadata882">
    <rdf:RDF>
      <cc:Work
         rdf:about="">
        <dc:format>image/svg+xml</dc:format>
        <dc:type
           rdf:resource="http://purl.org/dc/dcmitype/StillImage" />
      </cc:Work>
    </rdf:RDF>
  </metadata>
  <defs
     id="defs880" />
  <sodipodi:namedview
     inkscape:document-rotation="0"
     pagecolor="#ffffff"
     bordercolor="#666666"
     borderopacity="1"
     objecttolerance="10"
     gridtolerance="10"
     guidetolerance="10"
     inkscape:pageopacity="0"
     inkscape:pageshadow="2"
     inkscape:window-width="1280"
     inkscape:window-height="776"
     id="namedview878"
     showgrid="false"
     inkscape:zoom="15.392428"
     inkscape:cx="-0.21019489"
     inkscape:cy="13.339473"
     inkscape:window-x="0"
     inkscape:window-y="24"
     inkscape:window-maximized="0"
     inkscape:current-layer="svg876" />
  <path
     d="M 7.9609375 0.5 A 7.4959922 7.4999995 0 0 0 0.5 8 A 7.4959922 7.4999995 0 0 0 7.9960938 15.5 A 7.4959922 7.4999995 0 0 0 15.492188 8 A 7.4959922 7.4999995 0 0 0 7.9960938 0.5 A 7.4959922 7.4999995 0 0 0 7.9609375 0.5 z M 9.7910156 2.8847656 L 11.607422 2.8847656 L 11.607422 8.5917969 L 11.607422 9.5019531 L 11.607422 10.410156 L 11.607422 13.115234 L 9.7910156 13.115234 L 9.7910156 12.611328 C 9.2683582 12.929546 8.6565202 13.115234 7.9960938 13.115234 C 6.0118825 13.115234 4.3847659 11.486809 4.3847656 9.5019531 C 4.3847659 7.5170976 6.0118826 5.8867188 7.9960938 5.8867188 C 8.6565322 5.8867187 9.268352 6.0722453 9.7910156 6.390625 L 9.7910156 2.8847656 z M 7.9960938 7.7070312 C 6.9946431 7.7070312 6.2011719 8.4995517 6.2011719 9.5019531 C 6.2011719 10.504355 6.9946431 11.296875 7.9960938 11.296875 C 8.9975443 11.296875 9.7890621 10.504355 9.7890625 9.5019531 C 9.7890621 8.4995517 8.9975443 7.7070312 7.9960938 7.7070312 z "
     style="fill:#000000;fill-opacity:1;stroke:none;stroke-width:0.252536;stroke-linejoin:bevel"
     id="circle3397-6-4-4-3-1-7-2" />
  <path
     d="m 11.612356,2.8849542 -0.0044,0.01065 v 5.6966026 0.9091035 0.9093257 2.70422 H 9.7902405 v -0.502838 c -0.5226576,0.318221 -1.1335102,0.502616 -1.7939367,0.502616 -0.9991012,0 -1.9075222,-0.413134 -2.5636545,-1.076493 l -8.861e-4,0.0076 3.4039313,3.405752 C 10.774853,15.211544 12.9996,14.240368 14.454699,11.805084 15.261966,10.570733 15.747327,8.4387598 15.369751,6.6446181 Z M 7.9963035,7.70642 c -1.0014506,0 -1.7943806,0.7924951 -1.7943806,1.7948965 0,1.0024015 0.79293,1.7951185 1.7943806,1.7951185 1.0014504,0 1.7937144,-0.792717 1.7937148,-1.7951185 C 9.7900179,8.4989151 8.9977539,7.70642 7.9963035,7.70642 Z"
     style="fill:#000000;fill-opacity:0.15;stroke:none;stroke-width:15.9998;stroke-linecap:square;stroke-linejoin:miter;stroke-miterlimit:4;stroke-dasharray:none;stroke-opacity:1"
     id="rect3833-3-6-6-1-5"
     inkscape:connector-curvature="0" />
</svg>
