<?xml version="1.0" encoding="UTF-8" standalone="no"?>
<svg
   xmlns:dc="http://purl.org/dc/elements/1.1/"
   xmlns:cc="http://creativecommons.org/ns#"
   xmlns:rdf="http://www.w3.org/1999/02/22-rdf-syntax-ns#"
   xmlns:svg="http://www.w3.org/2000/svg"
   xmlns="http://www.w3.org/2000/svg"
   xmlns:sodipodi="http://sodipodi.sourceforge.net/DTD/sodipodi-0.dtd"
   xmlns:inkscape="http://www.inkscape.org/namespaces/inkscape"
   inkscape:version="1.0rc1 (09960d6, 2020-04-09)"
   sodipodi:docname="safari-pinned-tab.svg"
   id="svg107"
   version="1.1"
   fill="none"
   viewBox="0 0 16 16"
   height="16"
   width="16">
  <metadata
     id="metadata113">
    <rdf:RDF>
      <cc:Work
         rdf:about="">
        <dc:format>image/svg+xml</dc:format>
        <dc:type
           rdf:resource="http://purl.org/dc/dcmitype/StillImage" />
      </cc:Work>
    </rdf:RDF>
  </metadata>
  <defs
     id="defs111" />
  <sodipodi:namedview
     inkscape:current-layer="svg107"
     inkscape:window-maximized="0"
     inkscape:window-y="0"
     inkscape:window-x="0"
     inkscape:cy="5.0048609"
     inkscape:cx="19.762857"
     inkscape:zoom="18.361126"
     showgrid="false"
     id="namedview109"
     inkscape:window-height="800"
     inkscape:window-width="1280"
     inkscape:pageshadow="2"
     inkscape:pageopacity="0"
     guidetolerance="10"
     gridtolerance="10"
     objecttolerance="10"
     borderopacity="1"
     bordercolor="#666666"
     pagecolor="#ffffff" />
  <path
     inkscape:connector-curvature="0"
     d="m 11.425725,13.671112 c 0,-0.741851 0.601388,-1.343284 1.343284,-1.343284 H 3.2316935 c -0.261269,0 -0.50494,0.07487 -0.711269,0.203911 l 0.397836,0.210269 -0.824104,0.21497 c -0.130165,0.20691 -0.205747,0.451657 -0.205747,0.714134 0,0.741851 0.601388,1.343284 1.343284,1.343284 H 12.76901 c -0.741896,0 -1.343284,-0.601433 -1.343285,-1.343284 z M 3.4553405,0.98535169 V 3.0126954 l 1.388672,0.8300781 -1.388672,0.4902344 v 3.9472656 l 0.560547,0.375 -0.560547,0.2558594 v 0.4511719 l 1.388672,0.3007813 -1.388672,0.4238279 v 4.927734 h 9.3242185 c 0.735671,0 1.332031,-0.596312 1.332031,-1.332031 V 13.356445 L 12.769793,12.932617 14.11159,12.553711 V 11.979492 L 13.574481,11.745117 14.11159,11.438476 V 2.4736329 L 13.060809,2.0732423 14.11159,1.5947267 V 0.98535169 Z M 7.2346375,3.0244142 H 10.332293 V 3.5654298 H 7.2346375 Z M 4.7502625,4.5009767 H 12.818621 V 5.0400392 H 4.7502625 Z m 0,1.4765625 H 12.818621 V 6.5185548 H 4.7502625 Z m 0,1.4765625 H 12.818621 V 7.9951173 H 4.7502625 Z m 0,1.4765625 H 12.818621 V 9.4697267 H 4.7502625 Z m 0,1.4765628 h 8.0683585 v 0.541015 H 4.7502625 Z"
     style="fill:#000000;stroke-width:0.0447761"
     id="path18" />
  <g
     transform="matrix(0.04477613,0,0,0.04477613,15.424498,-3.0824041)"
     id="g34" />
</svg>
